HIERARCHY
ROOT Hips
{
	OFFSET -0.001795 -0.223333 0.028219
	CHANNELS 6 Xposition Yposition Zposition Zrotation Yrotation Xrotation 
	JOINT LeftUpLeg
	{
		OFFSET 0.069520 -0.091406 -0.006815
		CHANNELS 3 Zrotation Yrotation Xrotation
		JOINT LeftLeg
		{
			OFFSET 0.034277 -0.375199 -0.004496
			CHANNELS 3 Zrotation Yrotation Xrotation
			JOINT LeftFoot
			{
				OFFSET -0.013596 -0.397961 -0.043693
				CHANNELS 3 Zrotation Yrotation Xrotation
				JOINT LeftToe
				{
					OFFSET 0.026358 -0.055791 0.119288
					CHANNELS 3 Zrotation Yrotation Xrotation
					End Site
					{
						OFFSET 0.000000 0.000000 0.000000
					}
				}
			}
		}
	}
	JOINT RightUpLeg
	{
		OFFSET -0.067670 -0.090522 -0.004320
		CHANNELS 3 Zrotation Yrotation Xrotation
		JOINT RightLeg
		{
			OFFSET -0.038290 -0.382569 -0.008850
			CHANNELS 3 Zrotation Yrotation Xrotation
			JOINT RightFoot
			{
				OFFSET 0.015774 -0.398415 -0.042312
				CHANNELS 3 Zrotation Yrotation Xrotation
				JOINT RightToe
				{
					OFFSET -0.025372 -0.048144 0.123348
					CHANNELS 3 Zrotation Yrotation Xrotation
					End Site
					{
						OFFSET 0.000000 0.000000 0.000000
					}
				}
			}
		}
	}
	JOINT Spine
	{
		OFFSET -0.002533 0.108963 -0.026696
		CHANNELS 3 Zrotation Yrotation Xrotation
		JOINT Spine1
		{
			OFFSET 0.005487 0.135180 0.001092
			CHANNELS 3 Zrotation Yrotation Xrotation
			JOINT Spine2
			{
				OFFSET 0.001457 0.052922 0.025425
				CHANNELS 3 Zrotation Yrotation Xrotation
				JOINT Neck
				{
					OFFSET -0.002778 0.213870 -0.042857
					CHANNELS 3 Zrotation Yrotation Xrotation
					JOINT Head
					{
						OFFSET 0.005152 0.064970 0.051349
						CHANNELS 3 Zrotation Yrotation Xrotation
						End Site
						{
							OFFSET 0.000000 0.000000 0.000000
						}
					}
				}
				JOINT LeftShoulder
				{
					OFFSET 0.078845 0.121749 -0.034090
					CHANNELS 3 Zrotation Yrotation Xrotation
					JOINT LeftArm
					{
						OFFSET 0.090977 0.030469 -0.008868
						CHANNELS 3 Zrotation Yrotation Xrotation
						JOINT LeftForeArm
						{
							OFFSET 0.259612 -0.012772 -0.027456
							CHANNELS 3 Zrotation Yrotation Xrotation
							JOINT LeftHand
							{
								OFFSET 0.249234 0.008986 -0.001171
								CHANNELS 3 Zrotation Yrotation Xrotation
								End Site
								{
									OFFSET 0.000000 0.000000 0.000000
								}
							}
						}
					}
				}
				JOINT RightShoulder
				{
					OFFSET -0.081759 0.118833 -0.038615
					CHANNELS 3 Zrotation Yrotation Xrotation
					JOINT RightArm
					{
						OFFSET -0.096012 0.032551 -0.009143
						CHANNELS 3 Zrotation Yrotation Xrotation
						JOINT RightForeArm
						{
							OFFSET -0.253742 -0.013329 -0.021401
							CHANNELS 3 Zrotation Yrotation Xrotation
							JOINT RightHand
							{
								OFFSET -0.255298 0.007772 -0.005559
								CHANNELS 3 Zrotation Yrotation Xrotation
								End Site
								{
									OFFSET 0.000000 0.000000 0.000000
								}
							}
						}
					}
				}
			}
		}
	}
}
MOTION
Frames: 9
Frame Time: 0.050000
0.000000 0.954682 0.000000 -0.971367 -0.362460 2.291267 3.324817 0.244608 4.838091 -2.495925 0.377113 -8.518362 2.465937 8.797896 12.860970 0.000000 0.000000 0.000000 -1.574507 -0.210268 2.969660 0.680771 -0.112289 -1.223889 -3.678979 -11.513120 9.687748 0.000000 0.000000 0.000000 0.148708 0.003026 -0.128043 2.551343 -0.119312 -21.743254 -2.199855 0.277774 26.764249 1.783592 0.154618 -20.683826 0.000000 0.000000 0.000000 -10.769751 5.791383 -3.223060 -27.238773 -13.149911 -2.075248 11.551292 -6.478463 -0.278014 0.000000 0.000000 0.000000 1.076109 -1.935350 -0.750875 22.437192 13.807285 -1.323642 -12.105677 4.233080 -0.016686 0.000000 0.000000 0.000000 
-0.000714 0.954092 -0.000409 -1.424994 -0.835604 2.256358 3.733050 0.237167 5.026432 -1.727332 0.358300 -8.757170 2.104236 8.208692 13.011446 0.000000 0.000000 0.000000 -1.207265 -0.233103 3.016537 0.805894 -0.144122 -1.862663 -3.637310 -11.579033 10.233395 0.000000 0.000000 0.000000 0.135350 0.005838 -0.187612 3.334034 -0.324077 -21.908420 -2.127322 1.335755 26.829761 0.620033 1.095240 -21.466122 0.000000 0.000000 0.000000 -11.962103 6.656269 -3.892534 -30.230914 -15.099548 -1.775291 9.546973 -6.341368 -0.180312 0.000000 0.000000 0.000000 3.063222 -1.526891 -0.685891 25.476910 13.126988 -1.531526 -13.150171 6.777254 -0.211238 0.000000 0.000000 0.000000 
-0.001194 0.953580 -0.001076 -1.026724 -0.908303 2.157220 3.539357 0.239110 4.826746 -2.046725 0.349377 -7.545932 2.213088 8.156255 12.080027 0.000000 0.000000 0.000000 -2.126167 -0.172536 2.921460 1.599476 -0.209635 -1.732363 -3.091995 -10.449233 9.832451 0.000000 0.000000 0.000000 0.329983 -0.004564 -0.013687 2.546804 -0.092665 -22.492102 -2.080200 1.493819 28.172462 2.064719 0.179362 -21.512179 0.000000 0.000000 0.000000 -13.392079 6.028614 -3.773485 -32.667032 -14.360946 -2.081463 9.751865 -8.444962 -0.269824 0.000000 0.000000 0.000000 4.648734 -0.950388 -0.519363 28.450701 13.390839 -1.627734 -13.338943 7.427907 -0.253273 0.000000 0.000000 0.000000 
-0.001664 0.954041 -0.001743 -1.117211 -0.408328 2.089509 3.886518 0.218563 4.931570 -2.529839 0.365006 -7.401145 2.128491 8.003137 11.797045 0.000000 0.000000 0.000000 -2.000719 -0.225255 3.427391 1.833811 -0.248023 -2.411554 -3.015855 -10.462370 10.785816 0.000000 0.000000 0.000000 -0.099124 0.021174 -0.485940 2.929420 -0.207033 -21.991959 -2.269632 0.774649 28.596368 0.918186 0.887385 -22.274300 0.000000 0.000000 0.000000 -14.880591 6.779649 -4.286198 -35.516990 -14.913563 -2.069070 9.394596 -8.817351 -0.234182 0.000000 0.000000 0.000000 5.448040 -0.242661 -0.286224 30.879303 14.009341 -1.562992 -12.582070 7.065209 -0.196651 0.000000 0.000000 0.000000 
-0.002183 0.954753 -0.002520 -0.951305 -0.229248 2.033876 3.914571 0.219540 5.004687 -2.887254 0.380271 -7.491861 1.747675 7.423433 11.879567 0.000000 0.000000 0.000000 -1.984234 -0.227653 3.427924 1.430249 -0.225447 -2.800606 -2.859709 -10.237760 11.201997 0.000000 0.000000 0.000000 -0.336873 0.016333 -0.293608 3.035803 -0.229955 -22.025365 -2.157933 0.642934 28.283808 1.049781 0.763255 -21.677157 0.000000 0.000000 0.000000 -15.765553 5.696027 -3.847448 -36.821233 -13.646477 -2.425534 8.523247 -10.227548 -0.219963 0.000000 0.000000 0.000000 6.398322 0.710904 0.066398 32.844251 13.351091 -1.712135 -10.961592 7.952659 -0.197906 0.000000 0.000000 0.000000 
-0.002582 0.955520 -0.003388 -0.753024 0.215465 2.120481 3.622569 0.216763 4.768793 -2.655464 0.364997 -7.367447 1.518528 7.144860 12.059940 0.000000 0.000000 0.000000 -2.419868 -0.222586 3.647625 1.762274 -0.262840 -3.183753 -2.918123 -10.415343 11.747167 0.000000 0.000000 0.000000 -0.723810 0.036728 -0.740833 2.971581 -0.229628 -21.516257 -1.937985 0.006224 28.319451 0.927908 0.809951 -22.198757 0.000000 0.000000 0.000000 -16.247237 5.617754 -3.803850 -38.358680 -13.918591 -2.403745 7.409958 -10.361382 -0.125232 0.000000 0.000000 0.000000 6.649096 1.174155 0.222432 34.857032 14.086866 -1.551735 -9.318362 7.702852 -0.121154 0.000000 0.000000 0.000000 
-0.003003 0.955870 -0.004317 -0.727772 0.639762 1.898342 3.710776 0.227176 5.106247 -2.860107 0.371616 -7.581793 1.324986 6.948085 12.318752 0.000000 0.000000 0.000000 -2.024849 -0.272367 3.905306 1.329177 -0.237639 -3.433422 -2.855388 -10.299071 11.962801 0.000000 0.000000 0.000000 -0.933010 0.025604 -0.373887 3.083875 -0.257564 -21.402063 -1.769783 -0.072969 28.088723 0.872613 0.862145 -22.008442 0.000000 0.000000 0.000000 -17.151602 4.748388 -3.502666 -38.554850 -13.419178 -2.531618 6.145619 -10.039826 -0.032556 0.000000 0.000000 0.000000 7.835511 2.019878 0.563715 35.271820 13.616187 -1.675556 -8.363923 7.224484 -0.064350 0.000000 0.000000 0.000000 
-0.003368 0.956164 -0.005136 -0.700441 0.887895 1.696314 3.718783 0.233581 5.253273 -2.843763 0.368298 -7.490576 1.179559 6.754208 12.357502 0.000000 0.000000 0.000000 -1.954394 -0.288503 4.010787 1.298685 -0.231312 -3.268201 -2.894120 -10.305289 11.769249 0.000000 0.000000 0.000000 -0.979684 0.015081 -0.055878 3.063308 -0.243193 -21.517964 -1.803317 0.085053 28.028228 1.231915 0.686907 -22.003765 0.000000 0.000000 0.000000 -17.234174 4.036861 -3.200511 -38.440016 -13.376054 -2.523705 4.994536 -9.504007 0.044107 0.000000 0.000000 0.000000 8.461953 2.216407 0.670508 35.236965 13.780427 -1.649656 -7.483041 7.377919 -0.036548 0.000000 0.000000 0.000000 
-0.003664 0.956483 -0.005813 -0.746006 0.992600 1.660930 3.783591 0.233232 5.346670 -2.968670 0.373898 -7.761726 1.031750 6.644799 12.772133 0.000000 0.000000 0.000000 -1.825489 -0.307152 4.123946 1.238541 -0.231920 -3.441762 -2.691793 -9.974519 12.065132 0.000000 0.000000 0.000000 -0.828568 0.019375 -0.247822 2.765533 -0.175009 -21.257012 -1.783801 0.132753 27.826622 1.268552 0.698477 -22.197295 0.000000 0.000000 0.000000 -16.972929 3.941876 -3.148547 -38.179679 -13.667248 -2.406038 4.726789 -8.938568 0.057771 0.000000 0.000000 0.000000 8.364340 2.432823 0.775094 34.471358 14.018122 -1.564990 -7.158401 7.431961 -0.029045 0.000000 0.000000 0.000000 
